<?xml version="1.0" encoding="UTF-8" standalone="no"?>
<!-- Created with Inkscape (http://www.inkscape.org/) -->

<svg
   width="11in"
   height="8.5in"
   viewBox="0 0 279.40001 215.9"
   version="1.1"
   id="svg160"
   inkscape:version="1.3-dev (1:1.2.0-alpha1+devel+202302061506+2b6505adf0)"
   sodipodi:docname="Inter_Icon.svg"
   xmlns:inkscape="http://www.inkscape.org/namespaces/inkscape"
   xmlns:sodipodi="http://sodipodi.sourceforge.net/DTD/sodipodi-0.dtd"
   xmlns="http://www.w3.org/2000/svg"
   xmlns:svg="http://www.w3.org/2000/svg">
  <sodipodi:namedview
     id="namedview162"
     pagecolor="#ffffff"
     bordercolor="#666666"
     borderopacity="1.0"
     inkscape:pageshadow="2"
     inkscape:pageopacity="0.0"
     inkscape:pagecheckerboard="0"
     inkscape:document-units="mm"
     showgrid="false"
     units="in"
     inkscape:zoom="0.66257083"
     inkscape:cx="899.52646"
     inkscape:cy="464.10132"
     inkscape:window-width="3440"
     inkscape:window-height="1365"
     inkscape:window-x="0"
     inkscape:window-y="0"
     inkscape:window-maximized="1"
     inkscape:current-layer="layer1"
     inkscape:showpageshadow="0"
     inkscape:deskcolor="#d1d1d1"
     showguides="true" />
  <defs
     id="defs157" />
  <g
     inkscape:label="Layer 1"
     inkscape:groupmode="layer"
     id="layer1">
    <path
       d="M 91.146493,118.08595 84.187548,105.19692 92.638325,90.829142 62.906962,73.606402 44.512509,105.19692 61.451643,135.37291 Z"
       style="color:#000000;display:inline;fill:#000000;stroke-width:1.14263;-inkscape-stroke:none;paint-order:fill markers stroke"
       id="path3" />
    <path
       d="m 223.54034,139.13763 17.10904,-33.94071 -17.42304,-31.96497 -29.47844,17.660819 7.22641,14.304151 -7.19814,16.77431"
       style="color:#000000;display:inline;fill:#000000;stroke-width:1.14263;-inkscape-stroke:none;paint-order:fill markers stroke"
       id="path2" />
    <path
       d="m 93.547261,20.267497 -26.011849,44.07173 29.40544,17.787027 2.900082,-4.849318 11.598256,6.696234 -0.39636,41.47085 -11.845268,6.83886 -4.065384,-6.72827 -29.379603,17.83302 27.794686,46.73875 h 98.067399 l 4.95887,-8.59017 21.64778,-33.99173 -29.83333,-17.04702 -2.62361,3.99097 -11.39052,-6.57634 0.19792,-43.450579 11.68508,-6.746359 2.6386,4.208013 29.52274,-17.583938 -26.80353,-44.07173 z M 118.107,54.62664 h 48.82235 l -17.75292,10.249503 v 80.641587 l 17.74826,10.24692 h -48.4482 l 17.56585,-10.1415 V 64.981563 Z"
       style="color:#000000;display:inline;fill:#000000;stroke-width:0.731871;-inkscape-stroke:none;paint-order:fill markers stroke"
       id="path1" />
  </g>
</svg>
